<svg id="visual" viewBox="0 0 900 600" width="900" height="600" xmlns="http://www.w3.org/2000/svg" xmlns:xlink="http://www.w3.org/1999/xlink" version="1.1"><g stroke-width="2" stroke-linejoin="bevel"><path d="M505.5 299L472.5 231L439 237Z" fill="#e5e5e5" stroke="#FFFFFF"></path><path d="M505.5 299L481 192L472.5 231Z" fill="#ececec" stroke="#FFFFFF"></path><path d="M472.5 231L481 192L439 237Z" fill="#e5e5e5" stroke="#FFFFFF"></path><path d="M410.5 373L472 384L505.5 299Z" fill="#ececec" stroke="#FFFFFF"></path><path d="M439 237L410.5 373L505.5 299Z" fill="#f3f3f3" stroke="#FFFFFF"></path><path d="M565.5 408L602 311L505.5 299Z" fill="#efefef" stroke="#FFFFFF"></path><path d="M505.5 299L602 311L481 192Z" fill="#e8e8e8" stroke="#FFFFFF"></path><path d="M559.5 432L565.5 408L472 384Z" fill="#f4f4f4" stroke="#FFFFFF"></path><path d="M472 384L565.5 408L505.5 299Z" fill="#f2f2f2" stroke="#FFFFFF"></path><path d="M513 467L559.5 432L472 384Z" fill="#f5f5f5" stroke="#FFFFFF"></path><path d="M565.5 408L687 321L602 311Z" fill="#f2f2f2" stroke="#FFFFFF"></path><path d="M418.5 81L300.5 174L439 237Z" fill="#efefef" stroke="#FFFFFF"></path><path d="M268 351L278.5 372L410.5 373Z" fill="#e2e2e2" stroke="#FFFFFF"></path><path d="M410.5 373L513 467L472 384Z" fill="#f4f4f4" stroke="#FFFFFF"></path><path d="M702 145L529.5 91L481 192Z" fill="#f6f6f6" stroke="#FFFFFF"></path><path d="M481 192L418.5 81L439 237Z" fill="#f3f3f3" stroke="#FFFFFF"></path><path d="M529.5 91L418.5 81L481 192Z" fill="#efefef" stroke="#FFFFFF"></path><path d="M268 351L410.5 373L439 237Z" fill="#f4f4f4" stroke="#FFFFFF"></path><path d="M410.5 373L318.5 519L513 467Z" fill="#e2e2e2" stroke="#FFFFFF"></path><path d="M300.5 174L268 351L439 237Z" fill="#e2e2e2" stroke="#FFFFFF"></path><path d="M681 519L687 321L565.5 408Z" fill="#e5e5e5" stroke="#FFFFFF"></path><path d="M602 311L702 145L481 192Z" fill="#f3f3f3" stroke="#FFFFFF"></path><path d="M268 351L263 400L278.5 372Z" fill="#ececec" stroke="#FFFFFF"></path><path d="M278.5 372L260 417L410.5 373Z" fill="#f6f6f6" stroke="#FFFFFF"></path><path d="M418.5 81L278 131L300.5 174Z" fill="#e2e2e2" stroke="#FFFFFF"></path><path d="M300.5 174L165 297L268 351Z" fill="#f3f3f3" stroke="#FFFFFF"></path><path d="M167.5 482L260 417L263 400Z" fill="#e5e5e5" stroke="#FFFFFF"></path><path d="M165 297L263 400L268 351Z" fill="#f3f3f3" stroke="#FFFFFF"></path><path d="M263 400L260 417L278.5 372Z" fill="#e5e5e5" stroke="#FFFFFF"></path><path d="M740 191L702 145L602 311Z" fill="#f4f4f4" stroke="#FFFFFF"></path><path d="M260 417L318.5 519L410.5 373Z" fill="#f2f2f2" stroke="#FFFFFF"></path><path d="M687 321L740 191L602 311Z" fill="#e8e8e8" stroke="#FFFFFF"></path><path d="M649 0L553.5 0L529.5 91Z" fill="#f4f4f4" stroke="#FFFFFF"></path><path d="M529.5 91L553.5 0L418.5 81Z" fill="#e5e5e5" stroke="#FFFFFF"></path><path d="M418.5 81L372 0L278 131Z" fill="#f3f3f3" stroke="#FFFFFF"></path><path d="M553.5 0L372 0L418.5 81Z" fill="#e8e8e8" stroke="#FFFFFF"></path><path d="M278 131L165 297L300.5 174Z" fill="#f3f3f3" stroke="#FFFFFF"></path><path d="M194 600L349.5 600L318.5 519Z" fill="#f3f3f3" stroke="#FFFFFF"></path><path d="M318.5 519L463 585L513 467Z" fill="#e8e8e8" stroke="#FFFFFF"></path><path d="M513 467L681 519L559.5 432Z" fill="#f5f5f5" stroke="#FFFFFF"></path><path d="M559.5 432L681 519L565.5 408Z" fill="#e8e8e8" stroke="#FFFFFF"></path><path d="M349.5 600L475.5 600L463 585Z" fill="#ececec" stroke="#FFFFFF"></path><path d="M463 585L538 600L513 467Z" fill="#f3f3f3" stroke="#FFFFFF"></path><path d="M538 600L681 519L513 467Z" fill="#efefef" stroke="#FFFFFF"></path><path d="M687 321L806.5 314L740 191Z" fill="#f6f6f6" stroke="#FFFFFF"></path><path d="M475.5 600L538 600L463 585Z" fill="#e5e5e5" stroke="#FFFFFF"></path><path d="M702 145L649 0L529.5 91Z" fill="#f3f3f3" stroke="#FFFFFF"></path><path d="M758.5 55L649 0L702 145Z" fill="#f5f5f5" stroke="#FFFFFF"></path><path d="M167.5 482L318.5 519L260 417Z" fill="#f4f4f4" stroke="#FFFFFF"></path><path d="M318.5 519L349.5 600L463 585Z" fill="#f4f4f4" stroke="#FFFFFF"></path><path d="M818.5 427L806.5 314L687 321Z" fill="#f4f4f4" stroke="#FFFFFF"></path><path d="M740 191L799.5 160L702 145Z" fill="#ececec" stroke="#FFFFFF"></path><path d="M372 0L254.5 0L278 131Z" fill="#f3f3f3" stroke="#FFFFFF"></path><path d="M38.5 214L86.5 302L165 297Z" fill="#e5e5e5" stroke="#FFFFFF"></path><path d="M806.5 314L799.5 160L740 191Z" fill="#f4f4f4" stroke="#FFFFFF"></path><path d="M165 297L167.5 482L263 400Z" fill="#e8e8e8" stroke="#FFFFFF"></path><path d="M799.5 160L758.5 55L702 145Z" fill="#f2f2f2" stroke="#FFFFFF"></path><path d="M38.5 214L165 297L63.5 113Z" fill="#e2e2e2" stroke="#FFFFFF"></path><path d="M165 297L86.5 302L167.5 482Z" fill="#f6f6f6" stroke="#FFFFFF"></path><path d="M538 600L673 600L681 519Z" fill="#f4f4f4" stroke="#FFFFFF"></path><path d="M681 519L818.5 427L687 321Z" fill="#efefef" stroke="#FFFFFF"></path><path d="M809.5 477L818.5 427L681 519Z" fill="#e2e2e2" stroke="#FFFFFF"></path><path d="M806.5 314L900 200L799.5 160Z" fill="#e8e8e8" stroke="#FFFFFF"></path><path d="M254.5 0L180 0L278 131Z" fill="#f4f4f4" stroke="#FFFFFF"></path><path d="M824.5 600L809.5 477L681 519Z" fill="#f2f2f2" stroke="#FFFFFF"></path><path d="M167.5 482L194 600L318.5 519Z" fill="#f3f3f3" stroke="#FFFFFF"></path><path d="M175.5 600L194 600L167.5 482Z" fill="#e5e5e5" stroke="#FFFFFF"></path><path d="M63.5 113L165 297L278 131Z" fill="#e5e5e5" stroke="#FFFFFF"></path><path d="M0 600L175.5 600L167.5 482Z" fill="#f2f2f2" stroke="#FFFFFF"></path><path d="M180 0L63.5 113L278 131Z" fill="#e8e8e8" stroke="#FFFFFF"></path><path d="M0 371L167.5 482L86.5 302Z" fill="#f4f4f4" stroke="#FFFFFF"></path><path d="M900 347L806.5 314L818.5 427Z" fill="#f3f3f3" stroke="#FFFFFF"></path><path d="M900 347L900 302L806.5 314Z" fill="#e8e8e8" stroke="#FFFFFF"></path><path d="M799.5 160L900 135L758.5 55Z" fill="#e2e2e2" stroke="#FFFFFF"></path><path d="M900 596L900 347L818.5 427Z" fill="#f2f2f2" stroke="#FFFFFF"></path><path d="M900 302L900 200L806.5 314Z" fill="#e2e2e2" stroke="#FFFFFF"></path><path d="M180 0L116.5 0L63.5 113Z" fill="#f4f4f4" stroke="#FFFFFF"></path><path d="M38.5 214L12.5 334L86.5 302Z" fill="#f2f2f2" stroke="#FFFFFF"></path><path d="M900 200L900 135L799.5 160Z" fill="#efefef" stroke="#FFFFFF"></path><path d="M900 135L833.5 0L758.5 55Z" fill="#f5f5f5" stroke="#FFFFFF"></path><path d="M758.5 55L833.5 0L649 0Z" fill="#efefef" stroke="#FFFFFF"></path><path d="M0 145L0 350L12.5 334Z" fill="#f2f2f2" stroke="#FFFFFF"></path><path d="M12.5 334L0 371L86.5 302Z" fill="#e8e8e8" stroke="#FFFFFF"></path><path d="M0 145L12.5 334L38.5 214Z" fill="#e5e5e5" stroke="#FFFFFF"></path><path d="M0 350L0 371L12.5 334Z" fill="#e8e8e8" stroke="#FFFFFF"></path><path d="M0 121L0 145L63.5 113Z" fill="#f4f4f4" stroke="#FFFFFF"></path><path d="M63.5 113L0 145L38.5 214Z" fill="#f3f3f3" stroke="#FFFFFF"></path><path d="M673 600L824.5 600L681 519Z" fill="#f4f4f4" stroke="#FFFFFF"></path><path d="M809.5 477L900 596L818.5 427Z" fill="#ececec" stroke="#FFFFFF"></path><path d="M0 0L0 121L63.5 113Z" fill="#e8e8e8" stroke="#FFFFFF"></path><path d="M0 371L0 467L167.5 482Z" fill="#efefef" stroke="#FFFFFF"></path><path d="M900 135L900 0L833.5 0Z" fill="#efefef" stroke="#FFFFFF"></path><path d="M116.5 0L0 0L63.5 113Z" fill="#e5e5e5" stroke="#FFFFFF"></path><path d="M824.5 600L900 596L809.5 477Z" fill="#f5f5f5" stroke="#FFFFFF"></path><path d="M824.5 600L900 600L900 596Z" fill="#f5f5f5" stroke="#FFFFFF"></path><path d="M0 467L0 600L167.5 482Z" fill="#f6f6f6" stroke="#FFFFFF"></path></g></svg>