<svg id="visual" viewBox="0 0 900 600" width="900" height="600" xmlns="http://www.w3.org/2000/svg" xmlns:xlink="http://www.w3.org/1999/xlink" version="1.1"><rect x="0" y="0" width="900" height="600" fill="#f2f2f2"></rect><defs><linearGradient id="grad1_0" x1="33.3%" y1="0%" x2="100%" y2="100%"><stop offset="20%" stop-color="#255ef0" stop-opacity="1"></stop><stop offset="80%" stop-color="#255ef0" stop-opacity="1"></stop></linearGradient></defs><defs><linearGradient id="grad1_1" x1="33.3%" y1="0%" x2="100%" y2="100%"><stop offset="20%" stop-color="#255ef0" stop-opacity="1"></stop><stop offset="80%" stop-color="#a6a4f3" stop-opacity="1"></stop></linearGradient></defs><defs><linearGradient id="grad1_2" x1="33.3%" y1="0%" x2="100%" y2="100%"><stop offset="20%" stop-color="#f2f2f2" stop-opacity="1"></stop><stop offset="80%" stop-color="#a6a4f3" stop-opacity="1"></stop></linearGradient></defs><defs><linearGradient id="grad2_0" x1="0%" y1="0%" x2="66.7%" y2="100%"><stop offset="20%" stop-color="#255ef0" stop-opacity="1"></stop><stop offset="80%" stop-color="#255ef0" stop-opacity="1"></stop></linearGradient></defs><defs><linearGradient id="grad2_1" x1="0%" y1="0%" x2="66.7%" y2="100%"><stop offset="20%" stop-color="#a6a4f3" stop-opacity="1"></stop><stop offset="80%" stop-color="#255ef0" stop-opacity="1"></stop></linearGradient></defs><defs><linearGradient id="grad2_2" x1="0%" y1="0%" x2="66.7%" y2="100%"><stop offset="20%" stop-color="#a6a4f3" stop-opacity="1"></stop><stop offset="80%" stop-color="#f2f2f2" stop-opacity="1"></stop></linearGradient></defs><g transform="translate(900, 0)"><path d="M0 459.7C-60.4 453.4 -120.8 447.1 -175.9 424.7C-231 402.4 -280.9 364 -318.9 318.9C-356.9 273.8 -383.2 221.9 -404.7 167.6C-426.2 113.3 -442.9 56.7 -459.7 0L0 0Z" fill="#cecbf3"></path><path d="M0 306.5C-40.3 302.3 -80.5 298 -117.3 283.1C-154 268.3 -187.3 242.7 -212.6 212.6C-238 182.5 -255.4 147.9 -269.8 111.7C-284.1 75.6 -295.3 37.8 -306.5 0L0 0Z" fill="#7680f2"></path><path d="M0 153.2C-20.1 151.1 -40.3 149 -58.6 141.6C-77 134.1 -93.6 121.3 -106.3 106.3C-119 91.3 -127.7 74 -134.9 55.9C-142.1 37.8 -147.6 18.9 -153.2 0L0 0Z" fill="#255ef0"></path></g><g transform="translate(0, 600)"><path d="M0 -459.7C55.7 -442 111.5 -424.4 167.6 -404.7C223.8 -385 280.3 -363.3 325.1 -325.1C369.8 -286.9 402.7 -232.2 423.1 -175.3C443.6 -118.3 451.7 -59.2 459.7 0L0 0Z" fill="#cecbf3"></path><path d="M0 -306.5C37.2 -294.7 74.3 -282.9 111.7 -269.8C149.2 -256.6 186.9 -242.2 216.7 -216.7C246.5 -191.2 268.4 -154.8 282.1 -116.8C295.7 -78.9 301.1 -39.4 306.5 0L0 0Z" fill="#7680f2"></path><path d="M0 -153.2C18.6 -147.3 37.2 -141.5 55.9 -134.9C74.6 -128.3 93.4 -121.1 108.4 -108.4C123.3 -95.6 134.2 -77.4 141 -58.4C147.9 -39.4 150.6 -19.7 153.2 0L0 0Z" fill="#255ef0"></path></g></svg>